<?xml version="1.0" encoding="utf-8"?>
<!-- Generator: Adobe Illustrator 26.5.3, SVG Export Plug-In . SVG Version: 6.00 Build 0)  -->
<svg version="1.1" id="Layer_1" xmlns="http://www.w3.org/2000/svg" xmlns:xlink="http://www.w3.org/1999/xlink" x="0px" y="0px"
	 viewBox="0 0 769.6 104.3" style="enable-background:new 0 0 769.6 104.3;" xml:space="preserve">
<style type="text/css">
	.st0{fill:#FFFFFF;stroke:#FFFFFF;stroke-miterlimit:10;}
	.st1{fill:#0099FF;}
	.st2{font-family:'ArialMT';}
	.st3{font-size:84.1025px;}
</style>
<g id="Layer_1_00000116938423134375767370000008210554637267159447_">
	<g id="Layer_3">
		<g>
			<g>
				<path class="st0" d="M414.3,50.3c0-19.7,13.3-34.3,28.4-34.3c12.8,0,21,8.8,21,23.6c0,19.7-13.3,34.3-28.4,34.3
					C422.5,73.9,414.3,65.1,414.3,50.3z M451.6,40.4c0-8.9-3.4-14.3-9.6-14.3c-7.9,0-15.8,10.4-15.8,23.4c0,8.9,3.4,14.3,9.6,14.3
					C443.8,63.7,451.6,53.3,451.6,40.4z"/>
				<path class="st0" d="M502.9,72.9h-9.5l0.2-5.7h-0.3c-3.9,3.6-8.8,6.8-13.9,6.8c-7,0-10.1-3.8-10.1-10.9c0-1.9,0.2-3.9,0.7-6.1
					l5.3-26.6H487l-5,25.1c-0.4,1.7-0.7,2.9-0.7,4.1c0,2.9,1.5,4.4,4.3,4.4c2.5,0,5.1-1.8,8.5-5.6l5.5-28h11.7L502.9,72.9z"/>
				<path class="st0" d="M518,62.6c0-1.8,0.3-3.6,0.6-5.4l3.7-17.8h-5.6l1.8-8.7l6.3-0.5l3.6-11.1h9.8l-2.1,11.1h9.6l-1.8,9.2H534
					l-3.7,18.3c-0.2,1-0.2,1.9-0.2,2.8c0,2.8,1.4,4.2,4.4,4.2c1.2,0,2.4-0.4,3.4-1l2.1,8.2c-2.3,0.9-5.6,1.9-10,1.9
					C521.5,73.9,518,69.2,518,62.6z"/>
				<path class="st0" d="M550.3,30.8l5.6-0.5l0.5-2.8c1.7-8.8,6.7-15.8,16.4-15.8c3.3,0,6.4,0.9,9.1,2.3l-3.7,8.2
					c-0.9-0.6-2.6-1.3-4.1-1.3c-3.2,0-5.1,1.4-5.9,6l-0.6,3.2h7.4l-1.8,9.2h-7.6L559,72.7h-11.7l6.7-33.4h-5.5L550.3,30.8z"/>
				<path class="st0" d="M581.9,30.3h11.7l-8.5,42.5h-11.7L581.9,30.3z M583.6,18.3c0-3.8,3.2-7,7.3-7c3.2,0,6.4,2,6.4,5.7
					c0,4-3.2,6.9-7.3,6.9C586.8,24,583.6,22.1,583.6,18.3z"/>
				<path class="st0" d="M600.2,62.6c0-1.8,0.3-3.6,0.6-5.4l3.7-17.8h-5.7l1.8-8.7l6.3-0.5l3.6-11.1h9.8l-2.1,11.1h9.6l-1.8,9.2
					h-9.9l-3.7,18.3c-0.2,1-0.2,1.9-0.2,2.8c0,2.8,1.4,4.2,4.4,4.2c1.2,0,2.4-0.4,3.4-1l2.1,8.2c-2.3,0.9-5.6,1.9-10,1.9
					C603.7,73.9,600.2,69.2,600.2,62.6z"/>
				<path class="st0" d="M631.7,62.6c0-1.8,0.3-3.6,0.6-5.4l3.7-17.8h-5.7l1.8-8.7l6.3-0.5l3.6-11.1h9.8l-2.1,11.2h9.6l-1.8,9.2
					h-9.9l-3.7,18.3c-0.2,1-0.2,1.9-0.2,2.8c0,2.8,1.4,4.2,4.4,4.2c1.2,0,2.4-0.4,3.4-1l2.1,8.2c-2.3,0.9-5.6,1.9-10,1.9
					C635.1,73.9,631.7,69.2,631.7,62.6z"/>
				<path class="st0" d="M683.9,29.3c10.2,0,13.9,7.1,13.9,16c0,4-1.5,8.4-2.2,9.7h-24.2c-0.3,7.1,4,10.1,9.6,10.1
					c2.6,0,5.7-1.5,7.8-3l4.2,7.4c-3.4,2.4-8.7,4.5-15.3,4.5c-10.3,0-17.4-6.8-17.4-18.2C660.3,39.9,672.6,29.3,683.9,29.3z
					 M687.8,47.8c0.2-0.9,0.4-2,0.4-3.2c0-3.4-1.4-6.3-5.7-6.3c-4,0-8.2,3.2-10.1,9.5H687.8z"/>
				<path class="st0" d="M709.9,30.3h9.5l-0.5,8.3h0.3c3.3-5.4,8.1-9.3,13-9.3c2.2,0,3.5,0.3,4.4,0.8l-3.9,10.2
					c-1.1-0.6-2.8-0.7-4.2-0.7c-3.8,0-7.3,2.6-10.6,8.6l-4.8,24.6h-11.7L709.9,30.3z"/>
				<path class="st0" d="M732.5,65.6l6.8-5.6c2.9,3.6,6.1,5.3,9.2,5.3c3.2,0,5.9-1.7,5.9-4c0-2.4-2.5-3.6-7.3-6.3
					c-4.8-2.7-8.6-6.4-8.6-11.8c0-8,7.4-13.9,16.5-13.9c5.9,0,10.5,2.9,13.9,6.5l-6.4,6.1c-2.1-2.1-4.6-3.9-7.6-3.9
					c-3.2,0-5.4,1.8-5.4,4.1c0,2.7,3.6,3.9,7,5.9c5.1,2.7,8.9,6.1,8.9,11.9c0,8.4-7.4,14-17.7,14C742.6,73.9,736,70.9,732.5,65.6z"
					/>
			</g>
		</g>
	</g>
	<text transform="matrix(1 0 0 1 110.6667 74.8903)" class="st1 st2 st3">contoso</text>
	
		<image style="overflow:visible;enable-background:new    ;" width="376" height="376" xlink:href="../../../../../../Sitecore/box/11_SA/POC/DX London 2023/images/contoso-logo.gif"  transform="matrix(0.2775 0 0 0.2775 0 0)">
	</image>
</g>
</svg>
