<?xml version="1.0" encoding="UTF-8"?><svg id="Layer_2" xmlns="http://www.w3.org/2000/svg" viewBox="0 0 675.52 121.69"><defs><style>.cls-1{fill:#000;}.cls-2{isolation:isolate;}.cls-3{fill:#ff8d00;}.cls-4{fill:#ff1887;}.cls-5{fill:#1c80ff;}.cls-6{fill:#ffd41c;}.cls-7{fill:#006ef9;}</style></defs><g id="Layer_1-2"><g><g class="cls-2"><path class="cls-7" d="M130.57,91.51V26.18h31.43c4.18,0,7.56,.49,10.16,1.47,2.59,.98,4.59,2.41,5.98,4.27,1.39,1.87,2.34,4.16,2.85,6.88,.51,2.72,.76,5.86,.76,9.4,0,3.23-.24,6.19-.71,8.88s-1.39,5.02-2.75,6.98c-1.36,1.96-3.37,3.48-6.03,4.56-2.66,1.08-6.17,1.62-10.54,1.62h-14.62v21.27h-16.52Zm16.52-33.8h8.26c2.28,0,4.07-.13,5.37-.38,1.3-.25,2.26-.71,2.9-1.38,.63-.66,1.04-1.62,1.23-2.85,.19-1.23,.29-2.86,.29-4.89s-.08-3.67-.24-4.94c-.16-1.26-.55-2.23-1.19-2.9-.63-.66-1.58-1.11-2.85-1.33-1.27-.22-3.01-.33-5.22-.33h-8.55v18.99Z"/><path class="cls-7" d="M191.63,91.51V26.18h16.52v52.03h25.45v13.29h-41.97Z"/><path class="cls-7" d="M236.54,91.51l20.7-65.33h22.5l20.8,65.33h-16.71l-3.89-12.82h-23.26l-3.8,12.82h-16.33Zm23.64-25.26h16.14l-7.79-25.83h-.67l-7.69,25.83Z"/><path class="cls-7" d="M316.59,91.51v-22.41l-21.74-42.92h17l13.01,27.44h.67l12.82-27.44h16.62l-21.84,42.92v22.41h-16.52Z"/><path class="cls-7" d="M365.87,69.39c-.32-3.17-.63-6.41-.95-9.73-.32-3.32-.62-6.53-.9-9.64-.29-3.1-.52-5.97-.71-8.6-.19-2.63-.33-4.9-.43-6.84s-.14-3.34-.14-4.23v-4.18h17.57v4.18c0,.89-.05,2.3-.14,4.23-.1,1.93-.24,4.21-.43,6.84-.19,2.63-.43,5.49-.71,8.6-.29,3.1-.59,6.32-.9,9.64-.32,3.32-.63,6.57-.95,9.73h-11.3Zm-2.47,22.12v-13.77h16.24v13.77h-16.24Z"/></g><g class="cls-2"><path class="cls-1" d="M419.99,91.51V26.18h11.02l22.31,52.03h.48l22.22-52.04h11.02V91.51h-7.98V39.28h-.38l-22.31,52.23h-5.98l-22.32-52.23h-.38v52.23h-7.69Z"/><path class="cls-1" d="M524.45,92.27c-3.93,0-7.2-.25-9.83-.76-2.63-.51-4.73-1.34-6.32-2.52-1.58-1.17-2.79-2.72-3.61-4.65-.82-1.93-1.36-4.29-1.61-7.08-.25-2.78-.38-6.08-.38-9.88,0-4.49,.19-8.34,.57-11.54,.38-3.2,1.25-5.79,2.61-7.79,1.36-1.99,3.5-3.45,6.41-4.37,2.91-.92,6.84-1.38,11.78-1.38,3.73,0,6.79,.29,9.16,.85,2.38,.57,4.26,1.46,5.65,2.66,1.39,1.2,2.42,2.8,3.09,4.79,.66,1.99,1.09,4.37,1.28,7.12,.19,2.75,.28,5.93,.28,9.54v2.57h-33.14c0,3.29,.16,5.98,.47,8.07,.32,2.09,.96,3.7,1.95,4.84,.98,1.14,2.53,1.93,4.65,2.38,2.12,.44,5.02,.67,8.69,.67,1.52,0,3.2-.05,5.03-.14,1.84-.1,3.67-.24,5.51-.43s3.48-.38,4.94-.57v6.27c-1.33,.25-2.96,.48-4.89,.67-1.93,.19-3.96,.35-6.08,.48-2.12,.13-4.19,.19-6.22,.19Zm11.58-26.3v-2.56c0-3.29-.19-5.9-.57-7.84-.38-1.93-1.03-3.39-1.95-4.37-.92-.98-2.17-1.63-3.75-1.95-1.58-.32-3.55-.48-5.89-.48-3.04,0-5.45,.21-7.22,.62-1.77,.41-3.1,1.16-3.99,2.23-.89,1.08-1.49,2.63-1.8,4.65-.32,2.03-.47,4.72-.47,8.07h27.44l-1.8,1.61Z"/><path class="cls-1" d="M573.63,92.27c-3.48,0-6.38-.38-8.69-1.14-2.31-.76-4.13-2.07-5.46-3.94-1.33-1.87-2.28-4.42-2.85-7.64s-.85-7.28-.85-12.15,.27-9.04,.81-12.3c.54-3.26,1.47-5.81,2.8-7.65,1.33-1.83,3.13-3.15,5.41-3.94,2.28-.79,5.16-1.19,8.64-1.19,2.6,0,4.91,.21,6.93,.62,2.03,.41,3.78,1.12,5.27,2.14,1.49,1.01,2.67,2.41,3.56,4.18h.47V20.96h7.79V91.51h-6.93l-.38-6.93h-.57c-.89,2.22-2.17,3.88-3.85,4.98-1.68,1.11-3.56,1.84-5.65,2.18-2.09,.35-4.24,.52-6.46,.52Zm3.04-6.84c3.23,0,5.79-.44,7.69-1.33,1.9-.88,3.23-2.28,3.99-4.18,.63-1.77,1.01-3.7,1.14-5.79,.12-2.09,.19-4.56,.19-7.41,0-2.34-.06-4.48-.19-6.41-.13-1.93-.47-3.62-1.04-5.08-.82-2.15-2.18-3.69-4.09-4.6-1.9-.92-4.53-1.38-7.88-1.38-2.85,0-5.13,.19-6.84,.57-1.71,.38-3.01,1.19-3.89,2.42-.89,1.23-1.49,3.04-1.8,5.41-.32,2.37-.47,5.59-.47,9.64s.16,7.28,.47,9.69c.32,2.41,.92,4.21,1.8,5.42,.88,1.2,2.2,2.01,3.94,2.42,1.74,.41,4.07,.62,6.98,.62Z"/><path class="cls-1" d="M613.61,29.41v-8.45h8.26v8.45h-8.26Zm.19,62.1V43.08h7.79v48.43h-7.79Z"/><path class="cls-1" d="M650.93,92.27c-3.55,0-6.51-.41-8.88-1.23-2.37-.82-4.15-2.25-5.32-4.27-1.17-2.03-1.76-4.87-1.76-8.55s.43-6.57,1.28-8.69,2.36-3.62,4.51-4.51c2.15-.88,5.16-1.33,9.02-1.33,.63,0,1.63,.02,2.99,.05s2.93,.06,4.7,.1c1.77,.03,3.56,.06,5.36,.1,1.8,.03,3.47,.08,4.98,.14v-3.04c0-2.85-.18-5.08-.52-6.7-.35-1.61-1.06-2.82-2.14-3.61-1.08-.79-2.58-1.3-4.51-1.52-1.93-.22-4.48-.33-7.65-.33-1.39,0-3.04,.05-4.94,.14s-3.75,.22-5.55,.38c-1.8,.16-3.25,.33-4.32,.52v-6.27c2.4-.44,5.11-.77,8.12-1,3.01-.22,6.13-.33,9.35-.33,3.42,0,6.32,.21,8.69,.62,2.38,.41,4.3,1.06,5.79,1.95s2.61,2.06,3.37,3.51c.76,1.46,1.28,3.23,1.57,5.32,.28,2.09,.43,4.53,.43,7.31v30.48h-6.93l-.28-6.84h-.57c-1.01,2.22-2.45,3.88-4.32,4.98-1.87,1.11-3.91,1.82-6.13,2.14-2.21,.32-4.34,.48-6.36,.48Zm2.85-6.36c1.84,0,3.54-.11,5.13-.33s2.98-.65,4.18-1.28c1.2-.63,2.15-1.58,2.85-2.85,.7-1.33,1.19-2.77,1.47-4.32,.28-1.55,.43-3.37,.43-5.46v-2.47h-16.14c-2.47,0-4.37,.19-5.7,.57-1.33,.38-2.23,1.17-2.71,2.37-.47,1.2-.71,3.01-.71,5.41s.28,4.12,.85,5.32c.57,1.2,1.66,2.01,3.28,2.42,1.61,.41,3.97,.62,7.07,.62Z"/></g><g id="Group_9"><path id="Path_16" class="cls-4" d="M25.49,121.69L0,95.58V12.23L25.49,1.51V121.69Z"/><path id="Path_17" class="cls-5" d="M95.9,29.95l-10.81,25.55L30.52,0h35.44l29.94,29.95Z"/><path id="Path_18" class="cls-3" d="M30.12,78.73v-28.01l35.65-14.88,19.33,19.66-54.98,23.23Z"/><path id="Path_19" class="cls-6" d="M25.48,1.51l19.33,19.66-19.32,8.11V1.51Z"/></g></g></g></svg>