<?xml version="1.0" encoding="utf-8"?>
<!-- Generator: Adobe Illustrator 26.5.3, SVG Export Plug-In . SVG Version: 6.00 Build 0)  -->
<svg version="1.1" xmlns="http://www.w3.org/2000/svg" xmlns:xlink="http://www.w3.org/1999/xlink" x="0px" y="0px"
	 viewBox="0 0 756.7 121.7" style="enable-background:new 0 0 756.7 121.7;" xml:space="preserve">
<style type="text/css">
	.st0{fill:#006EF9;}
	.st1{fill:#FF1887;}
	.st2{fill:#1C80FF;}
	.st3{fill:#FF8D00;}
	.st4{fill:#FFD41C;}
</style>
<g id="Layer_2_00000183215162177630389330000016145100920637096585_">
	<g id="Layer_1-2">
		<g>
			<g>
				<path class="st0" d="M130.6,91.5V26.2H162c4.2,0,7.6,0.5,10.2,1.5c2.6,1,4.6,2.4,6,4.3c1.4,1.9,2.3,4.2,2.9,6.9
					c0.5,2.7,0.8,5.9,0.8,9.4c0,3.2-0.2,6.2-0.7,8.9s-1.4,5-2.8,7s-3.4,3.5-6,4.6c-2.7,1.1-6.2,1.6-10.5,1.6h-14.6v21.3L130.6,91.5
					L130.6,91.5z M147.1,57.7h8.3c2.3,0,4.1-0.1,5.4-0.4c1.3-0.3,2.3-0.7,2.9-1.4c0.6-0.7,1-1.6,1.2-2.8s0.3-2.9,0.3-4.9
					s-0.1-3.7-0.2-4.9c-0.2-1.3-0.6-2.2-1.2-2.9c-0.6-0.7-1.6-1.1-2.9-1.3s-3-0.3-5.2-0.3h-8.6L147.1,57.7L147.1,57.7z"/>
				<path class="st0" d="M191.6,91.5V26.2h16.5v52h25.4v13.3L191.6,91.5L191.6,91.5z"/>
				<path class="st0" d="M236.5,91.5l20.7-65.3h22.5l20.8,65.3h-16.7l-3.9-12.8h-23.3l-3.8,12.8H236.5L236.5,91.5z M260.2,66.3h16.1
					l-7.8-25.8h-0.7L260.2,66.3L260.2,66.3z"/>
				<path class="st0" d="M316.6,91.5V69.1l-21.7-42.9h17l13,27.4h0.7l12.8-27.4H355l-21.8,42.9v22.4L316.6,91.5L316.6,91.5z"/>
				<path class="st0" d="M365.9,69.4c-0.3-3.2-0.6-6.4-1-9.7s-0.6-6.5-0.9-9.6c-0.3-3.1-0.5-6-0.7-8.6s-0.3-4.9-0.4-6.8
					s-0.1-3.3-0.1-4.2v-4.2h17.6v4.2c0,0.9,0,2.3-0.1,4.2c-0.1,1.9-0.2,4.2-0.4,6.8s-0.4,5.5-0.7,8.6c-0.3,3.1-0.6,6.3-0.9,9.6
					c-0.3,3.3-0.6,6.6-1,9.7H365.9L365.9,69.4z M363.4,91.5V77.7h16.2v13.8C379.6,91.5,363.4,91.5,363.4,91.5z"/>
			</g>
			<g id="Group_9">
				<path id="Path_16" class="st1" d="M25.5,121.7L0,95.6V12.2L25.5,1.5V121.7z"/>
				<path id="Path_17" class="st2" d="M95.9,30L85.1,55.5L30.5,0H66L95.9,30z"/>
				<path id="Path_18" class="st3" d="M30.1,78.7v-28l35.7-14.9l19.3,19.7C85.1,55.5,30.1,78.7,30.1,78.7z"/>
				<path id="Path_19" class="st4" d="M25.5,1.5l19.3,19.7l-19.3,8.1L25.5,1.5L25.5,1.5z"/>
			</g>
		</g>
	</g>
</g>
<g id="Layer_3">
	<g>
		<g>
			<path d="M397.6,64.5c0-19.7,13.3-34.3,28.4-34.3c12.8,0,21,8.8,21,23.6c0,19.7-13.3,34.3-28.4,34.3
				C405.8,88.1,397.6,79.3,397.6,64.5z M434.9,54.6c0-8.9-3.4-14.3-9.6-14.3c-7.9,0-15.8,10.4-15.8,23.4c0,8.9,3.4,14.3,9.6,14.3
				C427.1,77.9,434.9,67.5,434.9,54.6z"/>
			<path d="M486.2,87.1h-9.5l0.2-5.7h-0.3c-3.9,3.6-8.8,6.8-13.9,6.8c-7,0-10.1-3.8-10.1-10.9c0-1.9,0.2-3.9,0.7-6.1l5.3-26.6h11.7
				l-5,25.1c-0.4,1.7-0.7,2.9-0.7,4.1c0,2.9,1.5,4.4,4.3,4.4c2.5,0,5.1-1.8,8.5-5.6l5.5-28h11.7L486.2,87.1z"/>
			<path d="M501.3,76.8c0-1.8,0.3-3.6,0.6-5.4l3.7-17.8H500l1.8-8.7l6.3-0.5l3.6-11.1h9.8l-2.1,11.1h9.6l-1.8,9.2h-9.9l-3.7,18.3
				c-0.2,1-0.2,1.9-0.2,2.8c0,2.8,1.4,4.2,4.4,4.2c1.2,0,2.4-0.4,3.4-1l2.1,8.2c-2.3,0.9-5.6,1.9-10,1.9
				C504.8,88.1,501.3,83.4,501.3,76.8z"/>
			<path d="M533.6,45l5.6-0.5l0.5-2.8c1.7-8.8,6.7-15.8,16.4-15.8c3.3,0,6.4,0.9,9.1,2.3l-3.7,8.2c-0.9-0.6-2.6-1.3-4.1-1.3
				c-3.2,0-5.1,1.4-5.9,6l-0.6,3.2h7.4l-1.8,9.2h-7.6l-6.6,33.4h-11.7l6.7-33.4h-5.5L533.6,45z"/>
			<path d="M565.2,44.5h11.7l-8.5,42.5h-11.7L565.2,44.5z M566.9,32.5c0-3.8,3.2-7,7.3-7c3.2,0,6.4,2,6.4,5.7c0,4-3.2,6.9-7.3,6.9
				C570.1,38.2,566.9,36.3,566.9,32.5z"/>
			<path d="M583.5,76.8c0-1.8,0.3-3.6,0.6-5.4l3.7-17.8h-5.7l1.8-8.7l6.3-0.5l3.6-11.1h9.8l-2.1,11.1h9.6l-1.8,9.2h-9.9l-3.7,18.3
				c-0.2,1-0.2,1.9-0.2,2.8c0,2.8,1.4,4.2,4.4,4.2c1.2,0,2.4-0.4,3.4-1l2.1,8.2c-2.3,0.9-5.6,1.9-10,1.9
				C587,88.1,583.5,83.4,583.5,76.8z"/>
			<path d="M615,76.8c0-1.8,0.3-3.6,0.6-5.4l3.7-17.8h-5.7l1.8-8.7l6.3-0.5l3.6-11.1h9.8L633,44.5h9.6l-1.8,9.2h-9.9l-3.7,18.3
				c-0.2,1-0.2,1.9-0.2,2.8c0,2.8,1.4,4.2,4.4,4.2c1.2,0,2.4-0.4,3.4-1l2.1,8.2c-2.3,0.9-5.6,1.9-10,1.9
				C618.4,88.1,615,83.4,615,76.8z"/>
			<path d="M667.2,43.5c10.2,0,13.9,7.1,13.9,16c0,4-1.5,8.4-2.2,9.7h-24.2c-0.3,7.1,4,10.1,9.6,10.1c2.6,0,5.7-1.5,7.8-3l4.2,7.4
				c-3.4,2.4-8.7,4.5-15.3,4.5c-10.3,0-17.4-6.8-17.4-18.2C643.6,54.1,655.9,43.5,667.2,43.5z M671.1,62c0.2-0.9,0.4-2,0.4-3.2
				c0-3.4-1.4-6.3-5.7-6.3c-4,0-8.2,3.2-10.1,9.5H671.1z"/>
			<path d="M693.2,44.5h9.5l-0.5,8.3h0.3c3.3-5.4,8.1-9.3,13-9.3c2.2,0,3.5,0.3,4.4,0.8l-3.9,10.2c-1.1-0.6-2.8-0.7-4.2-0.7
				c-3.8,0-7.3,2.6-10.6,8.6l-4.8,24.6h-11.7L693.2,44.5z"/>
			<path d="M715.8,79.8l6.8-5.6c2.9,3.6,6.1,5.3,9.2,5.3c3.2,0,5.9-1.7,5.9-4c0-2.4-2.5-3.6-7.3-6.3c-4.8-2.7-8.6-6.4-8.6-11.8
				c0-8,7.4-13.9,16.5-13.9c5.9,0,10.5,2.9,13.9,6.5l-6.4,6.1c-2.1-2.1-4.6-3.9-7.6-3.9c-3.2,0-5.4,1.8-5.4,4.1c0,2.7,3.6,3.9,7,5.9
				c5.1,2.7,8.9,6.1,8.9,11.9c0,8.4-7.4,14-17.7,14C725.9,88.1,719.3,85.1,715.8,79.8z"/>
		</g>
	</g>
</g>
</svg>
